<svg width="211" height="99" viewBox="0 0 211 99" fill="none" xmlns="http://www.w3.org/2000/svg">
<path d="M0.587818 61.506C0.308569 60.7261 0.714461 59.8675 1.4944 59.5882L14.2043 55.0376C14.9843 54.7583 15.8429 55.1642 16.1221 55.9442C16.4014 56.7241 15.9955 57.5827 15.2156 57.862L3.91787 61.907L7.96288 73.2047C8.24212 73.9846 7.83623 74.8433 7.05629 75.1225C6.27635 75.4018 5.4177 74.9959 5.13845 74.216L0.587818 61.506ZM71.0348 59.8525C71.6688 59.3192 72.615 59.4008 73.1483 60.0347C73.6816 60.6687 73.6 61.6149 72.9661 62.1482L71.0348 59.8525ZM2.64108 59.6443C9.49947 62.8863 15.5077 66.2486 20.7771 68.8679C26.1357 71.5316 30.9107 73.527 35.7467 74.333C45.2471 75.9164 55.4364 72.9747 71.0348 59.8525L72.9661 62.1482C57.0641 75.5258 46.0032 79.0838 35.2535 77.2922C29.9643 76.4107 24.8644 74.2499 19.4417 71.5543C13.9298 68.8144 8.25057 65.6143 1.35898 62.3565L2.64108 59.6443Z" fill="url(#paint0_linear_1192_17016)"/>
<path d="M46.0366 20.0388C46.0968 20.1986 46.094 20.3799 46.0281 20.5828C45.9957 20.7686 45.9209 20.9125 45.8037 21.0146C45.5862 21.2523 45.3377 21.2837 45.058 21.1088C44.5667 20.8089 44.0252 20.5769 43.4336 20.4127C42.8421 20.2486 42.1846 20.2873 41.4612 20.5289C40.7378 20.7705 40.0753 21.2562 39.4736 21.986C38.8802 22.6905 38.4393 23.4865 38.1509 24.3742C37.8707 25.2365 37.8305 26.0506 38.0303 26.8164C38.2637 27.5652 38.6648 28.1862 39.2335 28.6794C39.5816 28.9888 40.0052 29.2386 40.5042 29.4288C41.0031 29.6189 41.5145 29.7711 42.0382 29.8851C42.5955 29.9821 43.1484 30.0496 43.6968 30.0876C44.2535 30.1002 44.7889 30.0919 45.3031 30.0627C45.4718 30.0615 45.6071 30.1195 45.7092 30.2368C45.8367 30.3623 45.9052 30.4967 45.9147 30.64C45.9344 31.0109 45.7638 31.32 45.4031 31.5673C44.9916 31.7981 44.4911 31.9579 43.9014 32.0467C43.3118 32.1355 42.6879 32.1571 42.0298 32.1115C41.3717 32.0659 40.7215 31.9528 40.0792 31.7721C39.4452 31.5661 38.8739 31.2964 38.3654 30.9629C37.6451 30.5046 37.0678 29.9946 36.6334 29.4328C36.2327 28.854 35.9372 28.2533 35.7469 27.6307C35.5649 26.9827 35.4799 26.3383 35.4919 25.6973C35.5122 25.0309 35.6126 24.3766 35.7933 23.7343C36.237 22.1961 36.9736 20.9214 38.0032 19.91C39.0581 18.9069 40.2637 18.3033 41.6198 18.099C42.6222 17.948 43.5381 18.0634 44.3674 18.445C45.2303 18.8095 45.7867 19.3408 46.0366 20.0388ZM55.2979 21.5339C54.8826 22.3803 54.4471 23.3323 53.9914 24.3899C53.5438 25.4221 53.088 26.4797 52.624 27.5627C52.1682 28.6202 51.7207 29.6525 51.2814 30.6593C50.8674 31.6744 50.5074 32.5668 50.2012 33.3366C51.1129 33.4646 52.1217 33.5961 53.2274 33.731C54.3585 33.8742 55.5023 34.0216 56.6588 34.173C57.8235 34.2991 58.9505 34.455 60.0397 34.6407C61.1626 34.8092 62.1675 34.9956 63.0545 35.1997C63.1306 35.2244 63.2112 35.2786 63.2961 35.3623C63.466 35.5296 63.5139 35.7274 63.4398 35.9557C63.3326 36.2854 63.1868 36.5184 63.0023 36.6547C62.8261 36.7657 62.6327 36.8431 62.4222 36.8868C62.22 36.9052 62.005 36.9195 61.7774 36.9297C61.5752 36.9481 61.3732 37.0086 61.1716 37.1114C60.3195 37.0588 59.3872 36.9942 58.3746 36.9176C57.3621 36.8409 56.3242 36.756 55.2609 36.6629C54.1977 36.5698 53.1344 36.4767 52.0711 36.3835C51.0079 36.2904 50.008 36.2179 49.0716 36.166C48.2194 36.1134 47.6688 35.7803 47.4195 35.1666C47.1703 34.5528 47.2609 33.7131 47.6913 32.6472C48.4856 30.6342 49.3053 28.6293 50.1503 26.6327C51.0035 24.6108 51.8907 22.6138 52.8118 20.642C53.0026 20.2273 53.2575 19.9176 53.5764 19.7128C53.9206 19.5162 54.2785 19.4502 54.6501 19.5149C55.2581 19.6283 55.551 19.8917 55.5289 20.3051C55.5403 20.7014 55.4633 21.111 55.2979 21.5339ZM68.821 39.2603C68.8134 39.37 68.7767 39.5263 68.7107 39.7292C68.653 39.9067 68.5532 40.0846 68.4112 40.2628C68.2774 40.4156 68.1097 40.5433 67.9081 40.6461C67.7401 40.7317 67.5293 40.7333 67.2757 40.6509C66.8331 40.1145 66.5164 39.4929 66.3255 38.786C66.3698 37.9592 66.4639 37.0224 66.6077 35.9756C66.7769 34.9371 66.9839 33.8687 67.2285 32.7706C67.4814 31.6471 67.7638 30.5191 68.0756 29.3868C68.4129 28.2626 68.7631 27.1847 69.1263 26.1532C69.184 25.9756 69.2708 25.7515 69.3868 25.4808C69.5282 25.2183 69.6908 24.9767 69.8747 24.756C70.0667 24.51 70.2677 24.323 70.4776 24.1949C70.6957 24.0414 70.9442 24.01 71.2232 24.1007C71.5529 24.2078 71.7862 24.3958 71.9232 24.6646C72.0601 24.9334 72.0545 25.2961 71.9061 25.7526C71.5512 26.7588 71.1968 27.8493 70.8431 29.0242C70.523 30.182 70.2242 31.3606 69.9466 32.5602C69.6689 33.7598 69.4249 34.9423 69.2145 36.1076C69.0377 37.2559 68.9065 38.3068 68.821 39.2603ZM83.7816 32.3029C83.8419 32.4627 83.839 32.644 83.7731 32.8469C83.7408 33.0327 83.666 33.1766 83.5487 33.2787C83.3313 33.5165 83.0827 33.5479 82.8031 33.3729C82.3117 33.073 81.7702 32.841 81.1787 32.6768C80.5871 32.5127 79.9297 32.5514 79.2063 32.793C78.4829 33.0346 77.8203 33.5203 77.2187 34.2501C76.6253 34.9546 76.1844 35.7506 75.896 36.6383C75.6158 37.5006 75.5756 38.3147 75.7754 39.0806C76.0088 39.8293 76.4098 40.4503 76.9786 40.9435C77.3267 41.2529 77.7502 41.5027 78.2492 41.6929C78.7482 41.883 79.2595 42.0352 79.7833 42.1493C80.3406 42.2462 80.8934 42.3137 81.4419 42.3517C81.9986 42.3643 82.534 42.3561 83.0482 42.3269C83.2168 42.3256 83.3522 42.3836 83.4543 42.5009C83.5817 42.6264 83.6502 42.7608 83.6597 42.9041C83.6794 43.275 83.5089 43.5841 83.1481 43.8314C82.7367 44.0622 82.2361 44.222 81.6465 44.3108C81.0569 44.3996 80.433 44.4212 79.7749 44.3756C79.1167 44.33 78.4665 44.2169 77.8243 44.0362C77.1902 43.8302 76.619 43.5605 76.1104 43.227C75.3902 42.7687 74.8128 42.2587 74.3785 41.697C73.9778 41.1181 73.6823 40.5174 73.492 39.8948C73.31 39.2468 73.225 38.6024 73.237 37.9614C73.2572 37.295 73.3577 36.6407 73.5383 35.9984C73.982 34.4602 74.7187 33.1855 75.7482 32.1741C76.8032 31.171 78.0087 30.5674 79.3649 30.3631C80.3673 30.2121 81.2831 30.3275 82.1125 30.7091C82.9754 31.0736 83.5318 31.6049 83.7816 32.3029ZM91.7675 32.4162C91.6141 33.3197 91.4611 34.2654 91.3083 35.2532C91.1639 36.2156 90.9946 37.2542 90.8007 38.3688C92.2063 38.0124 93.6626 37.6724 95.1697 37.349C96.7103 37.0084 98.1128 36.7911 99.377 36.6972C99.4867 36.7048 99.6135 36.746 99.7574 36.8208C99.935 36.8785 100.1 36.9742 100.253 37.108C100.414 37.2164 100.541 37.3419 100.635 37.4846C100.729 37.6272 100.777 37.7829 100.778 37.9515C100.771 38.1455 100.655 38.3741 100.429 38.6372C100.212 38.875 100.019 38.9945 99.8499 38.9958C99.4878 39.0745 99.0038 39.1836 98.3976 39.3231C97.8251 39.4455 97.2063 39.5809 96.5413 39.7293C95.9015 39.886 95.2618 40.0426 94.6221 40.1993C94.0077 40.3642 93.486 40.503 93.0567 40.6159C94.2469 41.8718 95.4361 43.0013 96.6243 44.0042C97.8379 45.0154 99.1605 45.9498 100.592 46.8076C100.736 46.8824 100.855 47.0333 100.95 47.2602C101.078 47.4701 101.156 47.7056 101.183 47.9668C101.21 48.2281 101.187 48.4728 101.113 48.701C101.064 48.9375 100.947 49.1239 100.763 49.2603C100.545 49.4137 100.288 49.4705 99.9923 49.4306C99.7305 49.3735 99.4683 49.2743 99.2058 49.1329C97.4266 48.0502 95.8453 46.9195 94.4618 45.741C93.0865 44.537 91.6805 43.1689 90.2436 41.6366C90.0161 42.7683 89.7635 43.934 89.4859 45.1336C89.2337 46.3414 88.9481 47.6086 88.6293 48.9349C88.5387 49.2139 88.371 49.3417 88.1263 49.3183C87.8898 49.2695 87.6403 49.1744 87.3778 49.033C87.1153 48.8916 86.8905 48.7205 86.7034 48.5195C86.5164 48.3185 86.4181 48.1464 86.4086 48.0031C86.6355 46.787 86.8703 45.5034 87.113 44.1523C87.3811 42.8094 87.628 41.4456 87.8536 40.0609C88.0874 38.6508 88.3004 37.262 88.4924 35.8944C88.6926 34.5014 88.8723 33.1719 89.0313 31.9057C89.0712 31.6102 89.2377 31.3138 89.5306 31.0164C89.8317 30.6937 90.2314 30.5853 90.7298 30.6911C90.9073 30.7488 91.0557 30.8531 91.1749 31.004C91.3277 31.1377 91.4428 31.3013 91.5202 31.4947C91.6311 31.6709 91.6999 31.8475 91.7266 32.0244C91.7614 32.1759 91.7751 32.3065 91.7675 32.4162ZM130.108 46.0093C129.795 48.179 129.394 50.3198 128.904 52.4318C128.423 54.5184 127.903 56.5926 127.345 58.6545C127.296 58.891 127.205 59.0856 127.071 59.2384C126.946 59.3659 126.799 59.4724 126.631 59.558C126.488 59.6519 126.341 59.7162 126.19 59.7511C126.063 59.7942 125.962 59.8034 125.886 59.7787C125.607 59.6881 125.37 59.4706 125.173 59.1264C125.01 58.765 124.973 58.3605 125.063 57.9128C125.3 56.9244 125.537 55.9359 125.774 54.9475C126.011 53.959 126.235 52.9664 126.447 51.9697C123.545 51.84 120.52 51.572 117.371 51.1658C117.291 51.7567 117.211 52.3476 117.132 52.9386C117.052 53.5295 116.985 54.1245 116.93 54.7237C116.922 54.8334 116.882 55.0023 116.807 55.2306C116.759 55.4671 116.668 55.7039 116.534 55.941C116.427 56.1864 116.272 56.4026 116.071 56.5897C115.904 56.7596 115.69 56.8582 115.428 56.8855C115.217 56.8449 115.022 56.7115 114.844 56.4851C114.665 56.2588 114.562 56.0572 114.535 55.8803C114.487 54.9952 114.5 53.9621 114.575 52.7809C114.676 51.6079 114.818 50.3925 115.003 49.1346C115.221 47.8595 115.494 46.5883 115.821 45.3209C116.149 44.0534 116.524 42.8573 116.945 41.7325C117.12 41.3686 117.346 41.1476 117.623 41.0696C117.935 40.9745 118.192 40.9599 118.395 41.0258C118.623 41.1 118.788 41.2379 118.891 41.4395C119.019 41.6493 119.097 41.8849 119.124 42.1461C119.151 42.4073 119.153 42.6603 119.13 42.905C119.106 43.1497 119.07 43.3482 119.021 43.5004C118.782 44.3202 118.561 45.1314 118.356 45.9341C118.151 46.7368 117.985 47.5518 117.856 48.3793C119.207 48.622 120.693 48.8384 122.313 49.0285C123.942 49.1932 125.495 49.2911 126.971 49.322C127.109 48.7222 127.236 48.1183 127.349 47.5103C127.471 46.8769 127.588 46.2562 127.702 45.6481C127.842 45.217 128.092 44.8777 128.453 44.6305C128.839 44.3914 129.172 44.3172 129.451 44.4078C129.653 44.4738 129.823 44.6411 129.96 44.9099C130.123 45.187 130.172 45.5535 130.108 46.0093ZM143.4 56.6371C143.419 56.9236 143.235 57.1443 142.849 57.299C142.47 57.4284 141.939 57.424 141.255 57.2858C140.064 57.0672 138.844 56.853 137.594 56.6432C136.353 56.4081 135.082 56.1774 133.781 55.9511C133.31 57.2281 132.89 58.5215 132.521 59.8314C133.104 60.021 133.818 60.1968 134.662 60.3591C135.541 60.5042 136.44 60.6281 137.36 60.7307C138.28 60.8334 139.161 60.9237 140.005 61.0016C140.883 61.0624 141.621 61.12 142.22 61.1745C142.524 61.1891 142.832 61.2331 143.145 61.3067C143.466 61.3548 143.732 61.4413 143.944 61.5662C144.189 61.674 144.363 61.8287 144.466 62.0303C144.569 62.2319 144.575 62.4722 144.484 62.7512C144.459 62.8273 144.333 62.9125 144.106 63.007C143.879 63.1015 143.598 63.1922 143.261 63.2791C142.958 63.3489 142.629 63.4104 142.276 63.4637C141.955 63.4998 141.669 63.5189 141.416 63.5208C139.679 63.5171 137.987 63.4583 136.342 63.3443C134.705 63.2049 133.16 62.913 131.706 62.4687C130.861 62.2221 130.297 61.8005 130.014 61.2039C129.739 60.582 129.733 59.8231 129.997 58.9272C130.35 57.668 130.757 56.4126 131.22 55.161C130.871 54.7673 130.771 54.3422 130.92 53.8857C131.127 53.4203 131.462 53.1647 131.926 53.1191C132.215 52.4001 132.492 51.6769 132.757 50.9497C133.029 50.1971 133.311 49.4613 133.6 48.7423C133.338 48.6009 133.129 48.379 132.975 48.0766C132.847 47.7824 132.828 47.4959 132.918 47.2169C132.992 46.9886 133.109 46.8022 133.268 46.6576C133.436 46.4877 133.675 46.3973 133.987 46.3865C134.477 46.4334 135.072 46.5006 135.772 46.588C136.473 46.6755 137.182 46.7797 137.9 46.9008C138.643 47.0301 139.344 47.1597 140.002 47.2896C140.687 47.4278 141.261 47.5583 141.726 47.6813C142.275 47.8036 142.766 48.0191 143.198 48.3279C143.656 48.6449 144.03 49.089 144.321 49.6602C144.307 50.0482 144.145 50.2898 143.833 50.3849C143.548 50.4883 143.206 50.5035 142.809 50.4307C142.412 50.3578 141.935 50.2728 141.378 50.1759C140.829 50.0536 140.25 49.9357 139.642 49.8222C139.06 49.717 138.464 49.6077 137.856 49.4942C137.282 49.3637 136.729 49.254 136.197 49.1653C136.18 49.216 136.159 49.2794 136.135 49.3555C136.144 49.4145 136.14 49.4693 136.123 49.52C135.858 50.163 135.606 50.81 135.366 51.4612C135.127 52.1123 134.887 52.7635 134.648 53.4146C135.771 53.5832 136.91 53.7854 138.068 54.0212C139.233 54.2316 140.154 54.4185 140.829 54.5821C141.379 54.7044 141.878 54.9367 142.327 55.2791C142.777 55.6214 143.135 56.0741 143.4 56.6371ZM147.69 67.7886C147.919 66.8255 148.202 65.7397 148.539 64.5312C148.9 63.331 149.283 62.1095 149.687 60.8668C150.099 59.5988 150.503 58.356 150.898 57.1387C151.319 55.9296 151.716 54.8387 152.088 53.8661C152.17 53.6125 152.346 53.4593 152.616 53.4067C152.919 53.3369 153.142 53.3395 153.286 53.4143C153.726 53.6133 153.977 53.8771 154.039 54.2055C154.134 54.5168 154.128 54.9216 154.022 55.4199C153.733 56.2233 153.444 57.0266 153.155 57.8299C152.892 58.6415 152.641 59.4572 152.402 60.277C153.609 60.4449 154.696 60.3355 155.663 59.9486C156.656 59.5701 157.448 59.0286 158.042 58.3241C158.267 58.061 158.476 57.7221 158.667 57.3074C158.883 56.901 159.035 56.474 159.125 56.0263C159.222 55.5533 159.232 55.0937 159.152 54.6473C159.107 54.1839 158.931 53.7762 158.624 53.4243C158.174 52.9133 157.623 52.538 156.971 52.2984C156.32 52.0588 155.603 51.9378 154.818 51.9353C154.068 51.9157 153.276 52.0229 152.443 52.2569C151.635 52.4992 150.836 52.8426 150.047 53.2871C149.999 53.6922 149.838 54.0181 149.561 54.2648C149.293 54.4861 148.973 54.6065 148.602 54.6262C148.383 54.611 148.175 54.4313 147.979 54.087C147.79 53.7174 147.741 53.3931 147.832 53.1141C148.162 52.0997 148.725 51.3153 149.522 50.7612C150.352 50.1898 151.281 49.7907 152.308 49.5636C153.335 49.3365 154.385 49.2569 155.456 49.3247C156.528 49.3924 157.482 49.5623 158.319 49.8342C159.562 50.238 160.482 50.9436 161.08 51.951C161.686 52.9331 161.964 54.0188 161.914 55.2082C161.829 57.2834 161.133 58.95 159.827 60.208C158.546 61.4742 156.824 62.3728 154.661 62.9036C155.716 64.1437 156.695 65.3168 157.597 66.4232C158.525 67.5377 159.432 68.7156 160.318 69.957C160.421 70.1586 160.512 70.4404 160.59 70.8024C160.703 71.1473 160.537 71.5703 160.094 72.0712C159.827 72.3768 159.494 72.4931 159.097 72.4203C158.734 72.3303 158.416 72.1008 158.144 71.7318C157.734 71.094 157.252 70.4188 156.699 69.7062C156.179 68.9765 155.617 68.2471 155.012 67.518C154.416 66.7635 153.812 66.0345 153.2 65.3307C152.595 64.6016 152.017 63.923 151.464 63.2947C151.16 64.3174 150.843 65.336 150.513 66.3504C150.217 67.3478 149.938 68.3366 149.675 69.3168C149.56 69.6718 149.376 69.8925 149.124 69.9787C148.88 70.0396 148.606 70.0206 148.301 69.9217C148.157 69.8469 148.042 69.7255 147.957 69.5575C147.88 69.3641 147.806 69.1581 147.737 68.9394C147.702 68.7035 147.675 68.4844 147.656 68.2822C147.646 68.0546 147.657 67.89 147.69 67.7886ZM176.056 67.2474C176.075 67.534 175.891 67.7547 175.504 67.9094C175.126 68.0388 174.594 68.0344 173.91 67.8962C172.719 67.6776 171.499 67.4633 170.25 67.2536C169.008 67.0184 167.737 66.7878 166.437 66.5615C165.966 67.8385 165.546 69.1319 165.176 70.4418C165.759 70.6313 166.473 70.8072 167.318 70.9695C168.196 71.1146 169.095 71.2385 170.015 71.3411C170.935 71.4438 171.817 71.5341 172.661 71.612C173.538 71.6728 174.277 71.7304 174.876 71.7849C175.179 71.7995 175.488 71.8435 175.8 71.917C176.121 71.9652 176.387 72.0517 176.599 72.1766C176.844 72.2844 177.018 72.4391 177.121 72.6407C177.224 72.8423 177.23 73.0826 177.139 73.3616C177.115 73.4377 176.989 73.5229 176.762 73.6174C176.535 73.7119 176.253 73.8026 175.916 73.8895C175.613 73.9592 175.285 74.0208 174.931 74.0741C174.611 74.1102 174.324 74.1293 174.071 74.1312C172.334 74.1275 170.643 74.0687 168.998 73.9547C167.361 73.8153 165.815 73.5234 164.361 73.0791C163.516 72.8325 162.952 72.4109 162.669 71.8143C162.395 71.1924 162.389 70.4335 162.652 69.5376C163.005 68.2784 163.413 67.023 163.876 65.7714C163.527 65.3777 163.427 64.9526 163.575 64.4961C163.782 64.0307 164.118 63.7751 164.581 63.7295C164.871 63.0105 165.148 62.2873 165.412 61.5601C165.685 60.8075 165.966 60.0717 166.256 59.3527C165.993 59.2113 165.785 58.9894 165.631 58.687C165.502 58.3928 165.483 58.1062 165.574 57.8273C165.648 57.599 165.764 57.4126 165.924 57.268C166.091 57.0981 166.331 57.0077 166.643 56.9969C167.132 57.0438 167.727 57.111 168.428 57.1984C169.128 57.2859 169.837 57.3901 170.555 57.5112C171.298 57.6404 171.999 57.7701 172.658 57.9C173.342 58.0381 173.916 58.1687 174.381 58.2917C174.93 58.414 175.421 58.6295 175.853 58.9383C176.311 59.2553 176.686 59.6994 176.977 60.2706C176.963 60.6586 176.8 60.9002 176.489 60.9953C176.203 61.0987 175.862 61.1139 175.465 61.041C175.068 60.9682 174.591 60.8832 174.033 60.7863C173.484 60.6639 172.906 60.5461 172.298 60.4326C171.715 60.3274 171.12 60.2181 170.512 60.1046C169.937 59.9741 169.384 59.8644 168.852 59.7757C168.835 59.8264 168.815 59.8898 168.79 59.9659C168.799 60.0249 168.795 60.0797 168.779 60.1304C168.514 60.7734 168.262 61.4204 168.022 62.0716C167.782 62.7227 167.543 63.3739 167.303 64.025C168.426 64.1936 169.566 64.3958 170.723 64.6315C171.888 64.842 172.809 65.0289 173.485 65.1924C174.034 65.3148 174.533 65.5471 174.983 65.8894C175.432 66.2318 175.79 66.6845 176.056 67.2474ZM189.973 60.1613C189.382 61.203 188.783 62.2279 188.175 63.2361C187.592 64.2525 187.022 65.273 186.465 66.2976C185.908 67.3222 185.401 68.3633 184.945 69.4209C184.49 70.4785 184.123 71.5649 183.844 72.6802C183.804 72.9756 183.667 73.2254 183.433 73.4296C183.223 73.642 183.018 73.7574 182.815 73.7758C182.191 73.7974 181.831 73.5261 181.734 72.9618C181.85 71.5695 182.101 70.2352 182.488 68.9589C182.9 67.6908 183.397 66.4642 183.978 65.2792C184.585 64.1024 185.238 62.9548 185.938 61.8363C186.671 60.7007 187.401 59.5778 188.126 58.4676C188.417 58.0016 188.711 57.7885 189.006 57.8284C189.302 57.8684 189.56 57.9803 189.781 58.1641C190.12 58.4145 190.278 58.7464 190.256 59.1598C190.234 59.5732 190.14 59.907 189.973 60.1613ZM181.801 80.1336C181.71 80.4125 181.549 80.7806 181.316 81.2378C181.117 81.6778 180.876 82.076 180.592 82.4323C180.333 82.7969 180.036 83.0648 179.7 83.236C179.389 83.4154 179.081 83.3714 178.775 83.1039C178.613 82.9111 178.489 82.6043 178.401 82.1833C178.314 81.7623 178.332 81.4038 178.456 81.1077C178.705 80.5155 179.025 79.9607 179.418 79.4433C179.81 78.9259 180.192 78.6574 180.563 78.6377C180.731 78.6364 180.896 78.69 181.057 78.7984C181.244 78.915 181.392 79.0615 181.503 79.2377C181.623 79.3886 181.708 79.5566 181.76 79.7417C181.82 79.9015 181.834 80.0321 181.801 80.1336Z" fill="url(#paint1_linear_1192_17016)"/>
<defs>
<linearGradient id="paint0_linear_1192_17016" x1="43.4649" y1="49.5662" x2="28.5225" y2="75.9955" gradientUnits="userSpaceOnUse">
<stop stop-color="#DBA6F4"/>
<stop offset="1" stop-color="#A981FE"/>
</linearGradient>
<linearGradient id="paint1_linear_1192_17016" x1="182.455" y1="72.3971" x2="18.181" y2="19.0211" gradientUnits="userSpaceOnUse">
<stop stop-color="#DBA6F4"/>
<stop offset="1" stop-color="#A981FE"/>
</linearGradient>
</defs>
</svg>
