<svg width="94" height="94" viewBox="0 0 94 94" fill="none" xmlns="http://www.w3.org/2000/svg">
<path d="M52.9291 46.2926H49.2267C49.4595 45.2913 50.065 44.3832 51.2991 44.3832C52.2538 44.3832 52.9291 45.268 52.9291 46.2926ZM93.1441 46.572C93.1441 72.2915 72.2915 93.1441 46.572 93.1441C20.8526 93.1441 0 72.2915 0 46.572C0 20.8526 20.8526 0 46.572 0C72.2915 0 93.1441 20.8526 93.1441 46.572ZM24.1243 37.9562C24.1243 38.512 24.3451 39.0451 24.7381 39.4381C25.1312 39.8312 25.6642 40.052 26.2201 40.052C26.7759 40.052 27.309 39.8312 27.702 39.4381C28.095 39.0451 28.3158 38.512 28.3158 37.9562C28.3158 37.4004 28.095 36.8673 27.702 36.4743C27.309 36.0813 26.7759 35.8605 26.2201 35.8605C25.6642 35.8605 25.1312 36.0813 24.7381 36.4743C24.3451 36.8673 24.1243 37.4004 24.1243 37.9562ZM30.0157 51.2293H28.3857V41.4258H18.8151V40.7971C18.8151 39.563 20.0493 39.5397 20.678 39.5397C21.3999 39.5397 21.7259 39.6095 21.7259 39.6095V36.2098C21.7259 36.2098 21.0739 36.1166 20.189 36.1166C18.1864 36.1166 14.4839 36.6755 14.4839 40.9135V41.4491H12.7375V44.5927H14.4839V51.2293H12.8539V54.3729H20.7246V51.2293H18.8151V44.5927H24.0545V51.2293H22.4244V54.3729H30.0157V51.2293ZM43.2654 44.5695H44.7092V41.4258H37.8398V44.5695H39.0041L37.5138 49.2267C37.2344 49.9951 37.1645 50.9265 37.1645 50.9265H37.0714C37.0714 50.9265 37.0015 49.9951 36.7221 49.2267L35.2318 44.5695H36.3961V41.4258H29.5267V44.5695H30.9704L34.5565 54.3496H39.6794L43.2654 44.5695ZM57.4233 47.3638C57.4233 43.7777 55.2577 41.1231 51.4155 41.1231C47.2473 41.1231 44.6859 44.0804 44.6859 47.8761C44.6859 51.3224 47.1775 54.6523 51.7881 54.6523C55.281 54.6523 57.3535 52.836 57.3535 52.836L55.77 49.8321C55.77 49.8321 54.0469 51.0663 52.1374 51.0663C50.7635 51.0663 49.4595 50.3444 49.1335 48.6911H57.3302C57.3069 48.6678 57.4233 47.7829 57.4233 47.3638ZM68.9732 41.2628C68.9732 41.2628 68.7171 41.2163 68.4609 41.2163C66.4816 41.193 64.8516 42.6367 64.316 44.4065H64.2694C64.2694 44.4065 64.316 44.1503 64.316 43.7544V43.0791C64.316 41.8916 63.664 41.4258 62.4764 41.4258H58.4013V44.5695H59.6122C59.9615 44.5695 60.1711 44.779 60.1711 45.1283V51.2293H58.4246V54.3729H66.272V51.2293H64.5256V49.3431C64.5256 46.9912 65.6899 45.4543 68.0883 45.4543C68.6239 45.4543 68.9732 45.5242 68.9732 45.5242V41.2628ZM80.4532 45.5242V41.2628C80.4532 41.2628 80.1971 41.2163 79.9409 41.2163C77.9849 41.193 76.3549 42.6367 75.796 44.4065H75.7494C75.7494 44.4065 75.796 44.1503 75.796 43.7544V43.0791C75.796 41.8916 75.144 41.4258 73.9564 41.4258H69.8814V44.5695H71.0922C71.4415 44.5695 71.6511 44.779 71.6511 45.1283V51.2293H69.9046V54.3729H77.752V51.2293H76.0056V49.3431C76.0056 46.9912 77.1699 45.4543 79.5683 45.4543C80.1039 45.4543 80.4532 45.5242 80.4532 45.5242Z" fill="white"/>
</svg>
