<svg width="280" height="280" viewBox="0 0 280 280" fill="none" xmlns="http://www.w3.org/2000/svg">
<circle cx="140" cy="140" r="108" fill="url(#paint0_linear_1185_17064)"/>
<circle cx="140" cy="140" r="91" fill="url(#paint1_linear_1185_17064)" stroke="black" stroke-width="4"/>
<path d="M180.544 107.484L180.549 107.491L180.555 107.498C184.163 112.112 186.084 117.822 185.997 123.678L185.997 123.69L185.997 123.701C186.009 125.111 185.943 126.519 185.799 127.921L185.797 127.936L185.796 127.951C184.998 138.945 180.97 145.614 175.509 149.763C170 153.949 162.907 155.667 155.808 156.475L153.559 156.731L155.235 158.197C155.243 158.206 155.256 158.22 155.269 158.234C155.288 158.254 155.317 158.285 155.354 158.318L155.383 158.295C157.071 159.912 158.247 161.991 158.761 164.274L158.767 164.297L158.773 164.321C158.808 164.447 158.85 164.563 158.874 164.631C158.901 164.71 158.915 164.751 158.924 164.789L159.015 164.767L158.943 164.797L158.92 164.803C158.92 164.804 158.921 164.805 158.921 164.806L158.92 164.807L158.924 164.82C159.372 166.539 159.582 168.31 159.55 170.085L159.55 170.094V170.103C159.55 171.452 159.54 176.149 159.531 180.512C159.526 182.693 159.522 184.789 159.518 186.34L159.514 188.2L159.513 188.716L159.513 188.851L159.512 188.886L159.512 188.894L159.512 188.897V188.897C159.512 188.897 159.512 188.897 160.512 188.9L159.512 188.897L159.512 188.9C159.513 189.438 159.407 189.97 159.201 190.467C158.995 190.964 158.694 191.415 158.314 191.795C157.933 192.175 157.482 192.477 156.985 192.683C156.488 192.888 155.956 192.994 155.418 192.994H155.418L131.418 192.991L131.321 192.991L131.31 192.993C130.803 192.982 130.303 192.877 129.835 192.683C129.338 192.477 128.887 192.175 128.506 191.795C128.126 191.415 127.825 190.964 127.619 190.467C127.413 189.97 127.307 189.438 127.308 188.9L127.308 188.891L127.307 188.883L127.285 187.522C127.283 187.377 127.278 187.22 127.274 187.063L127.272 187.006L127.243 185.967L126.206 186.036C118.657 186.539 113.672 184.854 110.371 182.508C107.061 180.155 105.344 177.066 104.464 174.594L104.453 174.561L104.439 174.529C103.263 171.839 101.599 169.389 99.5306 167.305L99.4251 167.199L99.2931 167.128C98.4917 166.699 97.1321 165.861 95.9878 164.668C94.8428 163.473 93.9918 162.008 94.0001 160.293L94.0001 160.293C94.005 159.21 94.4385 158.174 95.2058 157.41C95.9731 156.647 97.0116 156.218 98.0941 156.219H98.0945H98.1163C98.9433 156.224 99.7495 156.479 100.429 156.95C101.11 157.422 101.631 158.089 101.925 158.863L102.023 159.119L102.237 159.289C102.531 159.524 102.844 159.734 103.172 159.918C107.164 162.977 110.259 167.054 112.131 171.722C113.168 174.611 115.364 176.269 117.98 177.119C120.566 177.958 123.608 178.029 126.513 177.771L127.425 177.69V176.774V170.103V170.094L127.425 170.085C127.392 168.304 127.604 166.527 128.055 164.803L128.063 164.771L128.069 164.739C128.552 162.231 129.82 159.941 131.691 158.201L133.283 156.721L131.123 156.475C124.021 155.667 116.902 153.973 111.368 149.799C105.883 145.663 101.831 138.995 101.033 127.951L101.032 127.936L101.031 127.921C100.887 126.519 100.82 125.111 100.832 123.702L100.832 123.688L100.832 123.675C100.723 117.81 102.663 112.092 106.319 107.506C106.723 107.001 107.167 106.459 107.606 105.971L108.017 105.515L107.795 104.942C107.317 103.705 106.96 102.425 106.729 101.12C106.097 96.7009 106.622 92.1962 108.248 88.0452C108.365 88.0312 108.506 88.0184 108.671 88.01C109.32 87.9772 110.357 88.0122 111.809 88.3171C114.715 88.9273 119.294 90.6205 125.76 95.0233L126.142 95.2834L126.588 95.161C132.078 93.6534 137.746 92.8943 143.438 92.9043L143.443 92.9043C149.118 92.8909 154.769 93.65 160.24 95.1607L160.683 95.283L161.065 95.0263C167.532 90.6731 172.114 88.9777 175.025 88.3545C176.479 88.043 177.518 87.9989 178.169 88.0248C178.331 88.0313 178.47 88.0421 178.585 88.0543C180.23 92.2493 180.754 96.8039 180.101 101.268C179.871 102.524 179.53 103.756 179.082 104.951L178.864 105.531L179.286 105.984C179.731 106.462 180.151 106.962 180.544 107.484Z" fill="url(#paint2_linear_1185_17064)" stroke="black" stroke-width="2"/>
<defs>
<linearGradient id="paint0_linear_1185_17064" x1="222.354" y1="140" x2="32" y2="140" gradientUnits="userSpaceOnUse">
<stop stop-color="#BFF0FF"/>
<stop offset="1" stop-color="#82B4FF"/>
</linearGradient>
<linearGradient id="paint1_linear_1185_17064" x1="210.916" y1="140" x2="47" y2="140" gradientUnits="userSpaceOnUse">
<stop stop-color="#DBA6F4"/>
<stop offset="1" stop-color="#A981FE"/>
</linearGradient>
<linearGradient id="paint2_linear_1185_17064" x1="175.839" y1="140.497" x2="93" y2="140.497" gradientUnits="userSpaceOnUse">
<stop stop-color="#A9FE81"/>
<stop offset="1" stop-color="#C0F0FF"/>
</linearGradient>
</defs>
</svg>
