<svg width="106" height="103" viewBox="0 0 106 103" fill="none" xmlns="http://www.w3.org/2000/svg">
<path fill-rule="evenodd" clip-rule="evenodd" d="M52.5104 0C23.5135 0 0 23.5165 0 52.5263C0 75.7342 15.0458 95.4232 35.91 102.369C38.5341 102.855 39.4978 101.229 39.4978 99.8418C39.4978 98.5895 39.4488 94.4514 39.4266 90.0624C24.8177 93.2398 21.7352 83.865 21.7352 83.865C19.3466 77.7936 15.9049 76.1795 15.9049 76.1795C11.1408 72.9193 16.264 72.9861 16.264 72.9861C21.5371 73.3568 24.3136 78.3992 24.3136 78.3992C28.997 86.4294 36.5977 84.1076 39.5942 82.7659C40.0653 79.3705 41.4264 77.0537 42.928 75.742C31.2649 74.4135 19.0039 69.9096 19.0039 49.7831C19.0039 44.0487 21.0552 39.3627 24.4145 35.6844C23.8693 34.3612 22.072 29.0189 24.9232 21.7838C24.9232 21.7838 29.3326 20.372 39.3673 27.168C43.5556 26.0038 48.0478 25.4205 52.5104 25.4007C56.973 25.4205 61.4686 26.0038 65.6651 27.168C75.6878 20.372 80.0911 21.7838 80.0911 21.7838C82.9492 29.0189 81.1512 34.3612 80.6059 35.6844C83.9726 39.3627 86.01 44.0483 86.01 49.7831C86.01 69.9574 73.7259 74.3999 62.0332 75.7C63.9165 77.3301 65.5947 80.5269 65.5947 85.4271C65.5947 92.4551 65.5337 98.1116 65.5337 99.8418C65.5337 101.24 66.4789 102.878 69.141 102.362C89.9936 95.4084 105.02 75.7264 105.02 52.5263C105.02 23.5165 81.5103 0 52.5104 0Z" fill="white"/>
<path d="M19.6951 74.8111C19.5806 75.0727 19.1726 75.1512 18.8018 74.9719C18.4236 74.7999 18.2109 74.4428 18.3336 74.18C18.446 73.9105 18.8541 73.8353 19.2315 74.0163C19.6105 74.1878 19.8264 74.5482 19.6951 74.8111ZM22.2595 77.1239C22.0109 77.357 21.5248 77.2487 21.1949 76.8805C20.8539 76.513 20.7901 76.022 21.0423 75.7852C21.2987 75.5525 21.7701 75.6612 22.1119 76.0291C22.4529 76.4006 22.5196 76.8883 22.2595 77.1239ZM24.0189 80.0831C23.6992 80.3075 23.1766 80.0972 22.854 79.6285C22.5347 79.1602 22.5347 78.5981 22.861 78.3729C23.1848 78.1476 23.6992 78.3501 24.0263 78.8151C24.3452 79.2916 24.3456 79.8533 24.0189 80.0831ZM26.9938 83.5106C26.708 83.8288 26.0996 83.7437 25.6539 83.3089C25.1985 82.884 25.0713 82.281 25.3579 81.9624C25.647 81.6433 26.2591 81.733 26.708 82.1641C27.1606 82.5881 27.2984 83.1956 26.9938 83.5106ZM30.8388 84.6678C30.7133 85.0803 30.127 85.2679 29.5365 85.0927C28.947 84.9121 28.561 84.4285 28.68 84.0115C28.8026 83.5961 29.3914 83.4006 29.9863 83.5883C30.5751 83.7681 30.9614 84.2479 30.8388 84.6678ZM35.2153 85.1584C35.23 85.5932 34.7292 85.9536 34.1093 85.9614C33.4858 85.9751 32.9817 85.6233 32.9751 85.196C32.9751 84.7571 33.4645 84.4 34.0876 84.3897C34.7075 84.3773 35.2153 84.7265 35.2153 85.1584ZM39.5141 84.9918C39.5885 85.4159 39.1576 85.8515 38.5422 85.9672C37.9371 86.0788 37.377 85.8172 37.2997 85.3969C37.2245 84.9621 37.6636 84.5269 38.2675 84.414C38.8841 84.3058 39.4356 84.5608 39.5141 84.9918Z" fill="white"/>
</svg>
