<svg width="94" height="94" viewBox="0 0 94 94" fill="none" xmlns="http://www.w3.org/2000/svg">
<path d="M86.245 0H6.87585C3.08022 0 0 3.00778 0 6.71155V86.4235C0 90.1324 3.08022 93.1441 6.87585 93.1441H86.245C90.0432 93.1441 93.1441 90.1324 93.1441 86.4235V6.71155C93.1441 3.00778 90.0432 0 86.245 0ZM27.625 79.3717H13.8034V34.9226H27.625V79.3717ZM20.7142 28.8449C16.286 28.8449 12.7064 25.2563 12.7064 20.8319C12.7064 16.4141 16.286 12.8254 20.7142 12.8254C25.1321 12.8254 28.7207 16.4141 28.7207 20.8319C28.7207 25.2563 25.1321 28.8449 20.7142 28.8449ZM79.3665 79.3717H65.567V57.7571C65.567 52.6005 65.4661 45.9705 58.3858 45.9705C51.1956 45.9705 50.0999 51.5863 50.0999 57.3832V79.373H36.29V34.9226H49.5436V40.9925H49.7325C51.5773 37.4996 56.0844 33.8139 62.8063 33.8139C76.7857 33.8139 79.3678 43.017 79.3678 54.9899L79.3665 79.3717Z" fill="white"/>
</svg>
