<svg width="280" height="280" viewBox="0 0 280 280" fill="none" xmlns="http://www.w3.org/2000/svg">
<circle cx="140" cy="140" r="108" fill="url(#paint0_linear_1185_17062)"/>
<circle cx="140" cy="140" r="91" fill="url(#paint1_linear_1185_17062)" stroke="black" stroke-width="4"/>
<path d="M106.478 173.571V174.571H107.478H121.41H121.431H122.431V173.571V128.712V127.712H121.431H107.478H106.478V128.712V173.571ZM173.634 174.571H174.634V173.571V148.98C174.634 142.915 173.987 137.317 171.406 133.224C168.759 129.026 164.209 126.6 156.912 126.6C151.283 126.6 147.062 129.027 144.525 131.929V128.712V127.712H143.525H130.159H129.159V128.712V173.571V174.571H130.159H144.092H145.092V173.571V151.372C145.092 148.464 145.377 145.809 146.431 143.901C146.944 142.97 147.637 142.225 148.577 141.705C149.523 141.181 150.778 140.853 152.463 140.853C154.087 140.853 155.219 141.232 156.031 141.8C156.845 142.369 157.422 143.189 157.828 144.218C158.663 146.332 158.702 149.105 158.702 151.75V173.571V174.571H159.702H173.634ZM99.6933 94H180.286C183.418 94 186 96.5866 186 99.7772V180.223C186 183.413 183.418 186 180.286 186H99.6933C96.5649 186 94 183.418 94 180.223V99.7772C94 96.5825 96.5649 94 99.6933 94ZM105.366 114.507C105.366 119.506 109.421 123.585 114.444 123.585C119.465 123.585 123.522 119.528 123.522 114.507C123.522 109.506 119.444 105.429 114.444 105.429C109.421 105.429 105.366 109.508 105.366 114.507Z" fill="url(#paint2_linear_1185_17062)" stroke="black" stroke-width="2"/>
<defs>
<linearGradient id="paint0_linear_1185_17062" x1="222.354" y1="140" x2="32" y2="140" gradientUnits="userSpaceOnUse">
<stop stop-color="#BFF0FF"/>
<stop offset="1" stop-color="#82B4FF"/>
</linearGradient>
<linearGradient id="paint1_linear_1185_17062" x1="210.916" y1="140" x2="47" y2="140" gradientUnits="userSpaceOnUse">
<stop stop-color="#DBA6F4"/>
<stop offset="1" stop-color="#A981FE"/>
</linearGradient>
<linearGradient id="paint2_linear_1185_17062" x1="175.839" y1="140" x2="93" y2="140" gradientUnits="userSpaceOnUse">
<stop stop-color="#A9FE81"/>
<stop offset="1" stop-color="#C0F0FF"/>
</linearGradient>
</defs>
</svg>
